<svg id="visual" viewBox="0 0 960 540" width="960" height="540" xmlns="http://www.w3.org/2000/svg" xmlns:xlink="http://www.w3.org/1999/xlink" version="1.1"><path d="M0 125L32 120.5C64 116 128 107 192 103.5C256 100 320 102 384 100.2C448 98.3 512 92.7 576 101.7C640 110.7 704 134.3 768 133.5C832 132.7 896 107.3 928 94.7L960 82L960 0L928 0C896 0 832 0 768 0C704 0 640 0 576 0C512 0 448 0 384 0C320 0 256 0 192 0C128 0 64 0 32 0L0 0Z" fill="#6ad0ec"></path><path d="M0 228L32 246C64 264 128 300 192 299C256 298 320 260 384 255.5C448 251 512 280 576 301.7C640 323.3 704 337.7 768 324.2C832 310.7 896 269.3 928 248.7L960 228L960 80L928 92.7C896 105.3 832 130.7 768 131.5C704 132.3 640 108.7 576 99.7C512 90.7 448 96.3 384 98.2C320 100 256 98 192 101.5C128 105 64 114 32 118.5L0 123Z" fill="#3ac3e7"></path><path d="M0 330L32 349C64 368 128 406 192 403.3C256 400.7 320 357.3 384 345.7C448 334 512 354 576 372C640 390 704 406 768 399.7C832 393.3 896 364.7 928 350.3L960 336L960 226L928 246.7C896 267.3 832 308.7 768 322.2C704 335.7 640 321.3 576 299.7C512 278 448 249 384 253.5C320 258 256 296 192 297C128 298 64 262 32 244L0 226Z" fill="#00abcf"></path><path d="M0 541L32 541C64 541 128 541 192 541C256 541 320 541 384 541C448 541 512 541 576 541C640 541 704 541 768 541C832 541 896 541 928 541L960 541L960 334L928 348.3C896 362.7 832 391.3 768 397.7C704 404 640 388 576 370C512 352 448 332 384 343.7C320 355.3 256 398.7 192 401.3C128 404 64 366 32 347L0 328Z" fill="#008aa6"></path></svg>